<svg xmlns="http://www.w3.org/2000/svg" version="1.1" xmlns:xlink="http://www.w3.org/1999/xlink" xmlns:svgjs="http://svgjs.dev/svgjs" width="1440" height="560" preserveAspectRatio="none" viewBox="0 0 1440 560"><g mask="url(&quot;#SvgjsMask11679&quot;)" fill="none"><rect width="1440" height="560" x="0" y="0" fill="url(&quot;#SvgjsLinearGradient11680&quot;)"></rect><path d="M0 0L388.33 0L0 21.02z" fill="rgba(255, 255, 255, .1)"></path><path d="M0 21.02L388.33 0L573.0899999999999 0L0 263.06z" fill="rgba(255, 255, 255, .075)"></path><path d="M0 263.06L573.0899999999999 0L679.27 0L0 357.54z" fill="rgba(255, 255, 255, .05)"></path><path d="M0 357.54L679.27 0L1139.18 0L0 472.90000000000003z" fill="rgba(255, 255, 255, .025)"></path><path d="M1440 560L841.58 560L1440 370.47z" fill="rgba(0, 0, 0, .1)"></path><path d="M1440 370.47L841.58 560L533.5500000000001 560L1440 188.22000000000003z" fill="rgba(0, 0, 0, .075)"></path><path d="M1440 188.22000000000003L533.5500000000001 560L473.80000000000007 560L1440 160.3z" fill="rgba(0, 0, 0, .05)"></path><path d="M1440 160.3L473.80000000000007 560L152.26000000000005 560L1440 87.60000000000001z" fill="rgba(0, 0, 0, .025)"></path></g><defs><mask id="SvgjsMask11679"><rect width="1440" height="560" fill="#ffffff"></rect></mask><linearGradient x1="84.72%" y1="-39.29%" x2="15.28%" y2="139.29%" gradientUnits="userSpaceOnUse" id="SvgjsLinearGradient11680"><stop stop-color="rgba(203, 183, 140, 0)" offset="1"></stop><stop stop-color="rgba(251, 206, 7, 1)" offset="1"></stop></linearGradient></defs></svg>