<svg xmlns="http://www.w3.org/2000/svg" viewBox="0 0 1536 695" preserveAspectRatio="xMidYMid" width="100%" height="100%" style="shape-rendering: auto; display: block; background: transparent;" xmlns:xlink="http://www.w3.org/1999/xlink"><g><path stroke="none" fill="none" d="M 478.2786338445182 426.6436694910095
c 0 32.652475993971414 -7.9894356155461965 9.378902679119449 -17.368338294665648 9.378902679119449
S 443.5419572551869 459.2961454849809 443.5419572551869 426.6436694910095
s 7.9894356155461965 -9.378902679119449 17.368338294665648 -9.378902679119449
S 478.2786338445182 393.9911934970381 478.2786338445182 426.6436694910095
z" id="path0"></path>
<circle fill="#fff300" r="1.5772561209060545" cy="0" cx="0">
  <animateMotion repeatCount="indefinite" dur="14.285714285714286s" begin="-10.061286732193915s">
    <mpath xlink:href="#path0"></mpath>
  </animateMotion>
</circle><path stroke="none" fill="none" d="M 500.1061875634199 578.0457133272749
c 0 28.374834580757934 -6.942778674015238 8.150218443409194 -15.092997117424432 8.150218443409194
S 469.92019332857103 606.4205479080329 469.92019332857103 578.0457133272749
s 6.942778674015238 -8.150218443409194 15.092997117424432 -8.150218443409194
S 500.1061875634199 549.670878746517 500.1061875634199 578.0457133272749
z" id="path1"></path>
<circle fill="#fbce07" r="1.8289393017297484" cy="0" cx="0">
  <animateMotion repeatCount="indefinite" dur="14.285714285714286s" begin="-12.265574171079054s">
    <mpath xlink:href="#path1"></mpath>
  </animateMotion>
</circle><path stroke="none" fill="none" d="M 694.3814981698515 262.4305782126384
c 0 35.42106100309088 -8.666855351820105 10.174134543440996 -18.840989895261103 10.174134543440996
S 656.6995183793292 297.8516392157293 656.6995183793292 262.4305782126384
s 8.666855351820105 -10.174134543440996 18.840989895261103 -10.174134543440996
S 694.3814981698515 227.00951720954754 694.3814981698515 262.4305782126384
z" id="path2"></path>
<circle fill="#fbce07" r="2.7570212716762947" cy="0" cx="0">
  <animateMotion repeatCount="indefinite" dur="14.285714285714286s" begin="-4.568687445620613s">
    <mpath xlink:href="#path2"></mpath>
  </animateMotion>
</circle><path stroke="none" fill="none" d="M 732.8296291462539 34.04729073168543
c 0 28.909045473514027 -7.0734898499023675 8.303661997711476 -15.377151847613844 8.303661997711476
S 702.0753254510262 62.956336205199456 702.0753254510262 34.04729073168543
s 7.0734898499023675 -8.303661997711476 15.377151847613844 -8.303661997711476
S 732.8296291462539 5.138245258171402 732.8296291462539 34.04729073168543
z" id="path3"></path>
<circle fill="#fbce07" r="2.7350047910185626" cy="0" cx="0">
  <animateMotion repeatCount="indefinite" dur="14.285714285714286s" begin="-5.193243153922252s">
    <mpath xlink:href="#path3"></mpath>
  </animateMotion>
</circle><path stroke="none" fill="none" d="M 1132.911081441456 176.8797484177062
c 0 19.39566461418629 -4.74574772474771 5.571095155138616 -10.316842879886325 5.571095155138616
S 1112.2773956816834 196.2754130318925 1112.2773956816834 176.8797484177062
s 4.74574772474771 -5.571095155138616 10.316842879886325 -5.571095155138616
S 1132.911081441456 157.4840838035199 1132.911081441456 176.8797484177062
z" id="path4"></path>
<circle fill="#fbce07" r="1.8900770530352875" cy="0" cx="0">
  <animateMotion repeatCount="indefinite" dur="14.285714285714286s" begin="-10.950581944197875s">
    <mpath xlink:href="#path4"></mpath>
  </animateMotion>
</circle><path stroke="none" fill="none" d="M 878.9791692516661 581.9870086022922
c 0 32.85378799118968 -8.03869280635492 9.436726337894909 -17.475419144249827 9.436726337894909
S 844.0283309631665 614.8407965934819 844.0283309631665 581.9870086022922
s 8.03869280635492 -9.436726337894909 17.475419144249827 -9.436726337894909
S 878.9791692516661 549.1332206111026 878.9791692516661 581.9870086022922
z" id="path5"></path>
<circle fill="#ff3c00" r="1.7871787386269737" cy="0" cx="0">
  <animateMotion repeatCount="indefinite" dur="14.285714285714286s" begin="-12.781021547476925s">
    <mpath xlink:href="#path5"></mpath>
  </animateMotion>
</circle><path stroke="none" fill="none" d="M 822.525753802335 677.0482143427354
c 0 33.48264493665787 -8.192562058969477 9.617355460529389 -17.809917519498867 9.617355460529389
S 786.9059187633372 710.5308592793932 786.9059187633372 677.0482143427354
s 8.192562058969477 -9.617355460529389 17.809917519498867 -9.617355460529389
S 822.525753802335 643.5655694060775 822.525753802335 677.0482143427354
z" id="path6"></path>
<circle fill="#ff3c00" r="2.695073138364827" cy="0" cx="0">
  <animateMotion repeatCount="indefinite" dur="14.285714285714286s" begin="-7.188472377175577s">
    <mpath xlink:href="#path6"></mpath>
  </animateMotion>
</circle><path stroke="none" fill="none" d="M 1314.4683612888725 445.3653501285171
c 0 20.002788803525032 -4.89429938809655 5.7454818903742115 -10.63978127847076 5.7454818903742115
S 1293.188798731931 465.36813893204214 1293.188798731931 445.3653501285171
s 4.89429938809655 -5.7454818903742115 10.63978127847076 -5.7454818903742115
S 1314.4683612888725 425.36256132499204 1314.4683612888725 445.3653501285171
z" id="path7"></path>
<circle fill="#fff300" r="1.8522316500198694" cy="0" cx="0">
  <animateMotion repeatCount="indefinite" dur="14.285714285714286s" begin="-2.4579881936495447s">
    <mpath xlink:href="#path7"></mpath>
  </animateMotion>
</circle><path stroke="none" fill="none" d="M 740.1530526303011 642.6468755227718
c 0 21.919441381950406 -5.363267572179354 6.29600975864533 -11.659277330824684 6.29600975864533
S 716.8344979686517 664.5663169047222 716.8344979686517 642.6468755227718
s 5.363267572179354 -6.29600975864533 11.659277330824684 -6.29600975864533
S 740.1530526303011 620.7274341408214 740.1530526303011 642.6468755227718
z" id="path8"></path>
<circle fill="#fff300" r="2.774685992245881" cy="0" cx="0">
  <animateMotion repeatCount="indefinite" dur="14.285714285714286s" begin="-6.337255412362477s">
    <mpath xlink:href="#path8"></mpath>
  </animateMotion>
</circle><path stroke="none" fill="none" d="M 1023.3650758396708 287.8755567265264
c 0 26.825168219865283 -6.563604989967036 7.705101509961304 -14.26870649992834 7.705101509961304
S 994.827662839814 314.7007249463917 994.827662839814 287.8755567265264
s 6.563604989967036 -7.705101509961304 14.26870649992834 -7.705101509961304
S 1023.3650758396708 261.0503885066611 1023.3650758396708 287.8755567265264
z" id="path9"></path>
<circle fill="#ff3c00" r="2.8434255700101527" cy="0" cx="0">
  <animateMotion repeatCount="indefinite" dur="14.285714285714286s" begin="-0.17316808098688305s">
    <mpath xlink:href="#path9"></mpath>
  </animateMotion>
</circle><path stroke="none" fill="none" d="M 751.2882103253561 265.556332701941
c 0 36.69984107723633 -8.979748348685483 10.541443713674266 -19.52119206235975 10.541443713674266
S 712.2458262006365 302.25617377917735 712.2458262006365 265.556332701941
s 8.979748348685483 -10.541443713674266 19.52119206235975 -10.541443713674266
S 751.2882103253561 228.8564916247047 751.2882103253561 265.556332701941
z" id="path10"></path>
<circle fill="#fbce07" r="2.7388179736736897" cy="0" cx="0">
  <animateMotion repeatCount="indefinite" dur="14.285714285714286s" begin="-2.7619659223283533s">
    <mpath xlink:href="#path10"></mpath>
  </animateMotion>
</circle><path stroke="none" fill="none" d="M 1450.5772953243936 654.9380573582896
c 0 31.67430058116349 -7.750094823050641 9.097937400972492 -16.848032224023132 9.097937400972492
S 1416.8812308763472 686.6123579394531 1416.8812308763472 654.9380573582896
s 7.750094823050641 -9.097937400972492 16.848032224023132 -9.097937400972492
S 1450.5772953243936 623.2637567771261 1450.5772953243936 654.9380573582896
z" id="path11"></path>
<circle fill="#ff3c00" r="2.6664696130513628" cy="0" cx="0">
  <animateMotion repeatCount="indefinite" dur="14.285714285714286s" begin="-2.886295694648962s">
    <mpath xlink:href="#path11"></mpath>
  </animateMotion>
</circle><path stroke="none" fill="none" d="M 765.7219854138903 578.6051601179336
c 0 28.587409924894022 -6.994791790133643 8.211277318852538 -15.206069108986181 8.211277318852538
S 735.3098471959179 607.1925700428276 735.3098471959179 578.6051601179336
s 6.994791790133643 -8.211277318852538 15.206069108986181 -8.211277318852538
S 765.7219854138903 550.0177501930395 765.7219854138903 578.6051601179336
z" id="path12"></path>
<circle fill="#fff300" r="1.6340716307170917" cy="0" cx="0">
  <animateMotion repeatCount="indefinite" dur="14.285714285714286s" begin="-3.068427763454036s">
    <mpath xlink:href="#path12"></mpath>
  </animateMotion>
</circle><path stroke="none" fill="none" d="M 1091.7790749937976 308.0206716150089
c 0 31.40878439598171 -7.68512809688914 9.021672113739427 -16.70680021062857 9.021672113739427
S 1058.3654745725403 339.4294560109906 1058.3654745725403 308.0206716150089
s 7.68512809688914 -9.021672113739427 16.70680021062857 -9.021672113739427
S 1091.7790749937976 276.6118872190272 1091.7790749937976 308.0206716150089
z" id="path13"></path>
<circle fill="#ff3c00" r="1.9171234938828825" cy="0" cx="0">
  <animateMotion repeatCount="indefinite" dur="14.285714285714286s" begin="-13.343505713961234s">
    <mpath xlink:href="#path13"></mpath>
  </animateMotion>
</circle><path stroke="none" fill="none" d="M 299.81261670014595 182.86805492108255
c 0 26.977172889493747 -6.600797621897406 7.74876242570565 -14.349560047603056 7.74876242570565
S 271.1134966049398 209.8452278105763 271.1134966049398 182.86805492108255
s 6.600797621897406 -7.74876242570565 14.349560047603056 -7.74876242570565
S 299.81261670014595 155.8908820315888 299.81261670014595 182.86805492108255
z" id="path14"></path>
<circle fill="#ff3c00" r="2.806138984914573" cy="0" cx="0">
  <animateMotion repeatCount="indefinite" dur="14.285714285714286s" begin="-2.710989626223656s">
    <mpath xlink:href="#path14"></mpath>
  </animateMotion>
</circle><path stroke="none" fill="none" d="M 820.7323765443638 158.43891658043557
c 0 20.981275778922733 -5.133716413991732 6.026536659903338 -11.16025307389507 6.026536659903338
S 798.4118703965736 179.4201923593583 798.4118703965736 158.43891658043557
s 5.133716413991732 -6.026536659903338 11.16025307389507 -6.026536659903338
S 820.7323765443638 137.45764080151284 820.7323765443638 158.43891658043557
z" id="path15"></path>
<circle fill="#fbce07" r="2.4954499869494198" cy="0" cx="0">
  <animateMotion repeatCount="indefinite" dur="14.285714285714286s" begin="-13.680910693260346s">
    <mpath xlink:href="#path15"></mpath>
  </animateMotion>
</circle><path stroke="none" fill="none" d="M 257.2953612589967 529.9000848607253
c 0 29.469554027759525 -7.210635559983713 8.464659135633056 -15.675294695616769 8.464659135633056
S 225.94477186776317 559.3696388884848 225.94477186776317 529.9000848607253
s 7.210635559983713 -8.464659135633056 15.675294695616769 -8.464659135633056
S 257.2953612589967 500.4305308329658 257.2953612589967 529.9000848607253
z" id="path16"></path>
<circle fill="#fff300" r="2.9712052020901365" cy="0" cx="0">
  <animateMotion repeatCount="indefinite" dur="14.285714285714286s" begin="-10.66993674175696s">
    <mpath xlink:href="#path16"></mpath>
  </animateMotion>
</circle><path stroke="none" fill="none" d="M 513.928528847758 558.656656046434
c 0 27.63190227273376 -6.7609973646050685 7.936822993232037 -14.697820357837106 7.936822993232037
S 484.53288813208377 586.2885583191678 484.53288813208377 558.656656046434
s 6.7609973646050685 -7.936822993232037 14.697820357837106 -7.936822993232037
S 513.928528847758 531.0247537737002 513.928528847758 558.656656046434
z" id="path17"></path>
<circle fill="#ff3c00" r="2.188411151302519" cy="0" cx="0">
  <animateMotion repeatCount="indefinite" dur="14.285714285714286s" begin="-4.865839254766127s">
    <mpath xlink:href="#path17"></mpath>
  </animateMotion>
</circle><path stroke="none" fill="none" d="M 962.9595658265897 351.85755366864
c 0 21.521048343444967 -5.265788424459938 6.181577715670364 -11.447366140130303 6.181577715670364
S 940.0648335463292 373.37860201208497 940.0648335463292 351.85755366864
s 5.265788424459938 -6.181577715670364 11.447366140130303 -6.181577715670364
S 962.9595658265897 330.336505325195 962.9595658265897 351.85755366864
z" id="path18"></path>
<circle fill="#fbce07" r="2.5070991574554515" cy="0" cx="0">
  <animateMotion repeatCount="indefinite" dur="14.285714285714286s" begin="-9.19801594483528s">
    <mpath xlink:href="#path18"></mpath>
  </animateMotion>
</circle><path stroke="none" fill="none" d="M 1360.3402486113862 14.239541949573535
c 0 24.51528921849522 -5.998421830057341 7.0416256265890524 -13.040047456646393 7.0416256265890524
S 1334.2601536980935 38.754831168068755 1334.2601536980935 14.239541949573535
s 5.998421830057341 -7.0416256265890524 13.040047456646393 -7.0416256265890524
S 1360.3402486113862 -10.275747268921684 1360.3402486113862 14.239541949573535
z" id="path19"></path>
<circle fill="#fbce07" r="1.8854116142280588" cy="0" cx="0">
  <animateMotion repeatCount="indefinite" dur="14.285714285714286s" begin="-10.351261434121376s">
    <mpath xlink:href="#path19"></mpath>
  </animateMotion>
</circle><path stroke="none" fill="none" d="M 341.91852598638906 449.1214550990438
c 0 32.781092003178486 -8.020905490139416 9.415845575381054 -17.436751065520472 9.415845575381054
S 307.0450238553481 481.90254710222234 307.0450238553481 449.1214550990438
s 8.020905490139416 -9.415845575381054 17.436751065520472 -9.415845575381054
S 341.91852598638906 416.3403630958653 341.91852598638906 449.1214550990438
z" id="path20"></path>
<circle fill="#fbce07" r="1.8382686456158592" cy="0" cx="0">
  <animateMotion repeatCount="indefinite" dur="14.285714285714286s" begin="-7.719754320635207s">
    <mpath xlink:href="#path20"></mpath>
  </animateMotion>
</circle><path stroke="none" fill="none" d="M 1203.7338720514442 54.522560239705385
c 0 20.55491875177734 -5.029395013732753 5.904072407425406 -10.93346742115816 5.904072407425406
S 1181.8669372091279 75.07747899148272 1181.8669372091279 54.522560239705385
s 5.029395013732753 -5.904072407425406 10.93346742115816 -5.904072407425406
S 1203.7338720514442 33.96764148792805 1203.7338720514442 54.522560239705385
z" id="path21"></path>
<circle fill="#ff3c00" r="2.1366557646728204" cy="0" cx="0">
  <animateMotion repeatCount="indefinite" dur="14.285714285714286s" begin="-10.625663996806127s">
    <mpath xlink:href="#path21"></mpath>
  </animateMotion>
</circle><path stroke="none" fill="none" d="M 473.57818452053374 181.49587523148725
c 0 32.38473710220315 -7.923925035645451 9.30199895488814 -17.225923990533587 9.30199895488814
S 439.12633653946654 213.8806123336904 439.12633653946654 181.49587523148725
s 7.923925035645451 -9.30199895488814 17.225923990533587 -9.30199895488814
S 473.57818452053374 149.1111381292841 473.57818452053374 181.49587523148725
z" id="path22"></path>
<circle fill="#ff3c00" r="2.370231437622637" cy="0" cx="0">
  <animateMotion repeatCount="indefinite" dur="14.285714285714286s" begin="-3.8036522227750402s">
    <mpath xlink:href="#path22"></mpath>
  </animateMotion>
</circle><path stroke="none" fill="none" d="M 309.08572609600196 423.8585702861161
c 0 25.326030526404963 -6.1967947032692985 7.2744981299248295 -13.471292833194129 7.2744981299248295
S 282.1431404296137 449.18460081252107 282.1431404296137 423.8585702861161
s 6.1967947032692985 -7.2744981299248295 13.471292833194129 -7.2744981299248295
S 309.08572609600196 398.53253975971114 309.08572609600196 423.8585702861161
z" id="path23"></path>
<circle fill="#ff3c00" r="1.8615938855839071" cy="0" cx="0">
  <animateMotion repeatCount="indefinite" dur="14.285714285714286s" begin="-1.0496886884301715s">
    <mpath xlink:href="#path23"></mpath>
  </animateMotion>
</circle><g></g></g><!-- [ldio] generated by https://loading.io --></svg>