<svg xmlns="http://www.w3.org/2000/svg" viewBox="0 0 1536 695" preserveAspectRatio="xMidYMid" width="100%" height="100%" style="shape-rendering: auto; display: block; background: transparent;" xmlns:xlink="http://www.w3.org/1999/xlink"><g><path stroke="none" fill="none" d="M 1508.5400067991243 349.680251597774
c 0 23.214636680249033 -5.680177060060933 6.66803394007153 -12.348211000132462 6.66803394007153
S 1483.8435847988592 372.894888278023 1483.8435847988592 349.680251597774
s 5.680177060060933 -6.66803394007153 12.348211000132462 -6.66803394007153
S 1508.5400067991243 326.46561491752493 1508.5400067991243 349.680251597774
z" id="path0"></path>
<circle fill="#fff300" r="6.0959508687168675" cy="0" cx="0">
  <animateMotion repeatCount="indefinite" dur="14.285714285714286s" begin="-5.907818103632019s">
    <mpath xlink:href="#path0"></mpath>
  </animateMotion>
</circle><path stroke="none" fill="none" d="M 1001.8515510977211 124.43383682247801
c 0 34.776064436148374 -8.509037042887368 9.988869572085171 -18.49790661497254 9.988869572085171
S 964.855737867776 159.2099012586264 964.855737867776 124.43383682247801
s 8.509037042887368 -9.988869572085171 18.49790661497254 -9.988869572085171
S 1001.8515510977211 89.65777238632964 1001.8515510977211 124.43383682247801
z" id="path1"></path>
<circle fill="#fbce07" r="7.398760401441599" cy="0" cx="0">
  <animateMotion repeatCount="indefinite" dur="14.285714285714286s" begin="-10.53663660611793s">
    <mpath xlink:href="#path1"></mpath>
  </animateMotion>
</circle><path stroke="none" fill="none" d="M 1439.453637451417 308.97253585934743
c 0 35.63760047746058 -8.7198384146978 10.23633205203655 -18.95617046673435 10.23633205203655
S 1401.5412965179482 344.610136336808 1401.5412965179482 308.97253585934743
s 8.7198384146978 -10.23633205203655 18.95617046673435 -10.23633205203655
S 1439.453637451417 273.33493538188685 1439.453637451417 308.97253585934743
z" id="path2"></path>
<circle fill="#fbce07" r="5.896746163574711" cy="0" cx="0">
  <animateMotion repeatCount="indefinite" dur="14.285714285714286s" begin="-11.493275798134828s">
    <mpath xlink:href="#path2"></mpath>
  </animateMotion>
</circle><path stroke="none" fill="none" d="M 654.5443364722282 14.894076284889287
c 0 34.32651860337691 -8.399041785932647 9.859744705225284 -18.25878649115793 9.859744705225284
S 618.0267634899124 49.2205948882662 618.0267634899124 14.894076284889287
s 8.399041785932647 -9.859744705225284 18.25878649115793 -9.859744705225284
S 654.5443364722282 -19.432442318487624 654.5443364722282 14.894076284889287
z" id="path3"></path>
<circle fill="#ff3c00" r="6.630188323270565" cy="0" cx="0">
  <animateMotion repeatCount="indefinite" dur="14.285714285714286s" begin="-6.982212804349083s">
    <mpath xlink:href="#path3"></mpath>
  </animateMotion>
</circle><path stroke="none" fill="none" d="M 604.639963387905 137.99151231331462
c 0 33.41975248357708 -8.177173480024178 9.599290606984907 -17.776464087009085 9.599290606984907
S 569.0870352138868 171.4112647968917 569.0870352138868 137.99151231331462
s 8.177173480024178 -9.599290606984907 17.776464087009085 -9.599290606984907
S 604.639963387905 104.57175982973754 604.639963387905 137.99151231331462
z" id="path4"></path>
<circle fill="#fff300" r="5.905305580400504" cy="0" cx="0">
  <animateMotion repeatCount="indefinite" dur="14.285714285714286s" begin="-1.2992896437922543s">
    <mpath xlink:href="#path4"></mpath>
  </animateMotion>
</circle><path stroke="none" fill="none" d="M 1456.7076717501404 145.0305228148186
c 0 20.480364438320883 -5.011153000865748 5.8826578705815304 -10.893810871447279 5.8826578705815304
S 1434.9200500072457 165.5108872531395 1434.9200500072457 145.0305228148186
s 5.011153000865748 -5.8826578705815304 10.893810871447279 -5.8826578705815304
S 1456.7076717501404 124.5501583764977 1456.7076717501404 145.0305228148186
z" id="path5"></path>
<circle fill="#fff300" r="7.739710169927564" cy="0" cx="0">
  <animateMotion repeatCount="indefinite" dur="14.285714285714286s" begin="-8.720080869302716s">
    <mpath xlink:href="#path5"></mpath>
  </animateMotion>
</circle><path stroke="none" fill="none" d="M 1289.974307120128 152.67550392711055
c 0 24.027947789998795 -5.879178714574173 6.901644577978377 -12.780823292552551 6.901644577978377
S 1264.4126605350232 176.70345171710935 1264.4126605350232 152.67550392711055
s 5.879178714574173 -6.901644577978377 12.780823292552551 -6.901644577978377
S 1289.974307120128 128.64755613711176 1289.974307120128 152.67550392711055
z" id="path6"></path>
<circle fill="#ff3c00" r="5.95437144829155" cy="0" cx="0">
  <animateMotion repeatCount="indefinite" dur="14.285714285714286s" begin="-11.668466034273955s">
    <mpath xlink:href="#path6"></mpath>
  </animateMotion>
</circle><path stroke="none" fill="none" d="M 699.7484267450984 643.2570870907372
c 0 35.17027527759598 -8.605492887071355 10.102100345692461 -18.707593232763816 10.102100345692461
S 662.3332402795709 678.4273623683332 662.3332402795709 643.2570870907372
s 8.605492887071355 -10.102100345692461 18.707593232763816 -10.102100345692461
S 699.7484267450984 608.0868118131411 699.7484267450984 643.2570870907372
z" id="path7"></path>
<circle fill="#fff300" r="6.801668551015361" cy="0" cx="0">
  <animateMotion repeatCount="indefinite" dur="14.285714285714286s" begin="-4.874345649151316s">
    <mpath xlink:href="#path7"></mpath>
  </animateMotion>
</circle><path stroke="none" fill="none" d="M 420.08914334392745 134.8298788110976
c 0 31.2763065030994 -7.652713293311554 8.983619953017913 -16.636333246329468 8.983619953017913
S 386.81647685126853 166.10618531419698 386.81647685126853 134.8298788110976
s 7.652713293311554 -8.983619953017913 16.636333246329468 -8.983619953017913
S 420.08914334392745 103.5535723079982 420.08914334392745 134.8298788110976
z" id="path8"></path>
<circle fill="#ff3c00" r="4.7387851159513055" cy="0" cx="0">
  <animateMotion repeatCount="indefinite" dur="14.285714285714286s" begin="-8.879573880527923s">
    <mpath xlink:href="#path8"></mpath>
  </animateMotion>
</circle><path stroke="none" fill="none" d="M 370.29466871192267 659.9849231799853
c 0 37.23910519952971 -9.111695953076419 10.696338727524491 -19.80803468060091 10.696338727524491
S 330.6785993507208 697.2240283795151 330.6785993507208 659.9849231799853
s 9.111695953076419 -10.696338727524491 19.80803468060091 -10.696338727524491
S 370.29466871192267 622.7458179804556 370.29466871192267 659.9849231799853
z" id="path9"></path>
<circle fill="#fbce07" r="6.1086136547973755" cy="0" cx="0">
  <animateMotion repeatCount="indefinite" dur="14.285714285714286s" begin="-4.410767005887923s">
    <mpath xlink:href="#path9"></mpath>
  </animateMotion>
</circle><path stroke="none" fill="none" d="M 1186.7352103348474 516.8091840319638
c 0 27.428086429658237 -6.711127530661058 7.878280144689068 -14.589407675350126 7.878280144689068
S 1157.556394984147 544.2372704616221 1157.556394984147 516.8091840319638
s 6.711127530661058 -7.878280144689068 14.589407675350126 -7.878280144689068
S 1186.7352103348474 489.38109760230554 1186.7352103348474 516.8091840319638
z" id="path10"></path>
<circle fill="#ff3c00" r="4.6238951082209425" cy="0" cx="0">
  <animateMotion repeatCount="indefinite" dur="14.285714285714286s" begin="-13.058809117134324s">
    <mpath xlink:href="#path10"></mpath>
  </animateMotion>
</circle><path stroke="none" fill="none" d="M 1251.103169317449 238.41201490806571
c 0 31.42230944010833 -7.6884374161967175 9.025556966839627 -16.713994383036344 9.025556966839627
S 1217.6751805513763 269.83432434817405 1217.6751805513763 238.41201490806571
s 7.6884374161967175 -9.025556966839627 16.713994383036344 -9.025556966839627
S 1251.103169317449 206.98970546795738 1251.103169317449 238.41201490806571
z" id="path11"></path>
<circle fill="#ff3c00" r="5.2980798529984625" cy="0" cx="0">
  <animateMotion repeatCount="indefinite" dur="14.285714285714286s" begin="-9.182392839699242s">
    <mpath xlink:href="#path11"></mpath>
  </animateMotion>
</circle><path stroke="none" fill="none" d="M 790.1880626469346 445.61919058014644
c 0 23.630492231658337 -5.78192895029938 6.787481811221012 -12.569410761520391 6.787481811221012
S 765.0492411238937 469.24968281180475 765.0492411238937 445.61919058014644
s 5.78192895029938 -6.787481811221012 12.569410761520391 -6.787481811221012
S 790.1880626469346 421.98869834848813 790.1880626469346 445.61919058014644
z" id="path12"></path>
<circle fill="#fbce07" r="6.479461532522315" cy="0" cx="0">
  <animateMotion repeatCount="indefinite" dur="14.285714285714286s" begin="-2.1161880913125715s">
    <mpath xlink:href="#path12"></mpath>
  </animateMotion>
</circle><path stroke="none" fill="none" d="M 46.95136499969437 500.2145162785377
c 0 23.03963369171877 -5.637357179888635 6.617767124217094 -12.25512430410573 6.617767124217094
S 22.441116391482915 523.2541499702564 22.441116391482915 500.2145162785377
s 5.637357179888635 -6.617767124217094 12.25512430410573 -6.617767124217094
S 46.95136499969437 477.1748825868189 46.95136499969437 500.2145162785377
z" id="path13"></path>
<circle fill="#fbce07" r="7.512306931461373" cy="0" cx="0">
  <animateMotion repeatCount="indefinite" dur="14.285714285714286s" begin="-0.21116039814141543s">
    <mpath xlink:href="#path13"></mpath>
  </animateMotion>
</circle><path stroke="none" fill="none" d="M 1006.6059243334819 375.17496178800997
c 0 26.779418917232682 -6.552411011663315 7.691960752822154 -14.244371764485468 7.691960752822154
S 978.117180804511 401.95438070524267 978.117180804511 375.17496178800997
s 6.552411011663315 -7.691960752822154 14.244371764485468 -7.691960752822154
S 1006.6059243334819 348.39554287077726 1006.6059243334819 375.17496178800997
z" id="path14"></path>
<circle fill="#fff300" r="4.842233416448245" cy="0" cx="0">
  <animateMotion repeatCount="indefinite" dur="14.285714285714286s" begin="-3.0023939993199233s">
    <mpath xlink:href="#path14"></mpath>
  </animateMotion>
</circle><path stroke="none" fill="none" d="M 138.32540306938802 513.4720906078974
c 0 29.706900684870387 -7.268709742042754 8.532833175441494 -15.801542917484248 8.532833175441494
S 106.7223172344195 543.1789912927677 106.7223172344195 513.4720906078974
s 7.268709742042754 -8.532833175441494 15.801542917484248 -8.532833175441494
S 138.32540306938802 483.765189923027 138.32540306938802 513.4720906078974
z" id="path15"></path>
<circle fill="#fbce07" r="7.10933734543576" cy="0" cx="0">
  <animateMotion repeatCount="indefinite" dur="14.285714285714286s" begin="-7.407944619814385s">
    <mpath xlink:href="#path15"></mpath>
  </animateMotion>
</circle><path stroke="none" fill="none" d="M 413.5043264171063 187.47203249806353
c 0 23.331976699318304 -5.708887915790648 6.701737988102066 -12.410625903892713 6.701737988102066
S 388.6830746093209 210.80400919738184 388.6830746093209 187.47203249806353
s 5.708887915790648 -6.701737988102066 12.410625903892713 -6.701737988102066
S 413.5043264171063 164.1400557987452 413.5043264171063 187.47203249806353
z" id="path16"></path>
<circle fill="#fff300" r="5.1859048530592515" cy="0" cx="0">
  <animateMotion repeatCount="indefinite" dur="14.285714285714286s" begin="-6.920388961047161s">
    <mpath xlink:href="#path16"></mpath>
  </animateMotion>
</circle><path stroke="none" fill="none" d="M 947.48532537885 55.13367708340965
c 0 20.438534063244838 -5.000917909091821 5.870642762846922 -10.871560671938742 5.870642762846922
S 925.7422040349726 75.5722111466545 925.7422040349726 55.13367708340965
s 5.000917909091821 -5.870642762846922 10.871560671938742 -5.870642762846922
S 947.48532537885 34.695143020164814 947.48532537885 55.13367708340965
z" id="path17"></path>
<circle fill="#ff3c00" r="4.76684013497518" cy="0" cx="0">
  <animateMotion repeatCount="indefinite" dur="14.285714285714286s" begin="-6.5378049027037335s">
    <mpath xlink:href="#path17"></mpath>
  </animateMotion>
</circle><path stroke="none" fill="none" d="M 812.353334086238 368.2581797828947
c 0 26.452044506436465 -6.472308762213177 7.597927677380687 -14.070236439593863 7.597927677380687
S 784.2128612070503 394.7102242893311 784.2128612070503 368.2581797828947
s 6.472308762213177 -7.597927677380687 14.070236439593863 -7.597927677380687
S 812.353334086238 341.80613527645824 812.353334086238 368.2581797828947
z" id="path18"></path>
<circle fill="#ff3c00" r="5.157859438174087" cy="0" cx="0">
  <animateMotion repeatCount="indefinite" dur="14.285714285714286s" begin="-3.9884294281881507s">
    <mpath xlink:href="#path18"></mpath>
  </animateMotion>
</circle><path stroke="none" fill="none" d="M 198.56861922140766 125.56486916596621
c 0 20.37512939757114 -4.985404001533364 5.852430784408732 -10.837834785942096 5.852430784408732
S 176.89294964952344 145.93999856353736 176.89294964952344 125.56486916596621
s 4.985404001533364 -5.852430784408732 10.837834785942096 -5.852430784408732
S 198.56861922140766 105.18973976839507 198.56861922140766 125.56486916596621
z" id="path19"></path>
<circle fill="#fff300" r="6.914274418488932" cy="0" cx="0">
  <animateMotion repeatCount="indefinite" dur="14.285714285714286s" begin="-2.3504212403284814s">
    <mpath xlink:href="#path19"></mpath>
  </animateMotion>
</circle><path stroke="none" fill="none" d="M 806.4750687830955 512.7921218876894
c 0 25.062186369790833 -6.132237090480735 7.198713106216516 -13.330950196697252 7.198713106216516
S 779.813168389701 537.8543082574803 779.813168389701 512.7921218876894
s 6.132237090480735 -7.198713106216516 13.330950196697252 -7.198713106216516
S 806.4750687830955 487.7299355178986 806.4750687830955 512.7921218876894
z" id="path20"></path>
<circle fill="#fbce07" r="7.9713895948315034" cy="0" cx="0">
  <animateMotion repeatCount="indefinite" dur="14.285714285714286s" begin="-3.797660116354277s">
    <mpath xlink:href="#path20"></mpath>
  </animateMotion>
</circle><path stroke="none" fill="none" d="M 1291.5640748740843 405.82243346414
c 0 22.604582683601457 -5.530908528966314 6.492805664438717 -12.02371419340503 6.492805664438717
S 1267.516646487274 428.4270161477414 1267.516646487274 405.82243346414
s 5.530908528966314 -6.492805664438717 12.02371419340503 -6.492805664438717
S 1291.5640748740843 383.2178507805385 1291.5640748740843 405.82243346414
z" id="path21"></path>
<circle fill="#fff300" r="5.834538574183873" cy="0" cx="0">
  <animateMotion repeatCount="indefinite" dur="14.285714285714286s" begin="-13.850283591862352s">
    <mpath xlink:href="#path21"></mpath>
  </animateMotion>
</circle><path stroke="none" fill="none" d="M 1460.928581785547 225.31588284866135
c 0 18.87833791863089 -4.619167788601175 5.4225013170535545 -10.04166910565473 5.4225013170535545
S 1440.8452435742374 244.19422076729222 1440.8452435742374 225.31588284866135
s 4.619167788601175 -5.4225013170535545 10.04166910565473 -5.4225013170535545
S 1460.928581785547 206.43754493003047 1460.928581785547 225.31588284866135
z" id="path22"></path>
<circle fill="#ff3c00" r="5.708736833882941" cy="0" cx="0">
  <animateMotion repeatCount="indefinite" dur="14.285714285714286s" begin="-6.760679537465729s">
    <mpath xlink:href="#path22"></mpath>
  </animateMotion>
</circle><path stroke="none" fill="none" d="M 684.7964207405832 8.4728250545049
c 0 27.116841113702705 -6.634971761863427 7.788879894361415 -14.423851656224842 7.788879894361415
S 655.9487174281335 35.58966616820761 655.9487174281335 8.4728250545049
s 6.634971761863427 -7.788879894361415 14.423851656224842 -7.788879894361415
S 684.7964207405832 -18.644016059197803 684.7964207405832 8.4728250545049
z" id="path23"></path>
<circle fill="#ff3c00" r="5.393288409636318" cy="0" cx="0">
  <animateMotion repeatCount="indefinite" dur="14.285714285714286s" begin="-6.835780545706356s">
    <mpath xlink:href="#path23"></mpath>
  </animateMotion>
</circle><path stroke="none" fill="none" d="M 1285.4248918331346 6.63347994835729
c 0 22.241881425462342 -5.442162476442912 6.388625515824289 -11.830787992267203 6.388625515824289
S 1261.7633158486 28.875361373819633 1261.7633158486 6.63347994835729
s 5.442162476442912 -6.388625515824289 11.830787992267203 -6.388625515824289
S 1285.4248918331346 -15.608401477105051 1285.4248918331346 6.63347994835729
z" id="path24"></path>
<circle fill="#ff3c00" r="5.656041084040716" cy="0" cx="0">
  <animateMotion repeatCount="indefinite" dur="14.285714285714286s" begin="-0.662551653480491s">
    <mpath xlink:href="#path24"></mpath>
  </animateMotion>
</circle><path stroke="none" fill="none" d="M 1222.1847641835554 526.8274661662948
c 0 36.45633640607885 -8.920167418508653 10.471500882597116 -19.391668301105767 10.471500882597116
S 1183.401427581344 563.2838025723737 1183.401427581344 526.8274661662948
s 8.920167418508653 -10.471500882597116 19.391668301105767 -10.471500882597116
S 1222.1847641835554 490.371129760216 1222.1847641835554 526.8274661662948
z" id="path25"></path>
<circle fill="#fff300" r="4.273339793742791" cy="0" cx="0">
  <animateMotion repeatCount="indefinite" dur="14.285714285714286s" begin="-4.896258999505129s">
    <mpath xlink:href="#path25"></mpath>
  </animateMotion>
</circle><path stroke="none" fill="none" d="M 409.7751120497963 660.5353130418482
c 0 30.118291433154795 -7.369369180452768 8.650998603140208 -16.020367783592974 8.650998603140208
S 377.73437648261034 690.653604475003 377.73437648261034 660.5353130418482
s 7.369369180452768 -8.650998603140208 16.020367783592974 -8.650998603140208
S 409.7751120497963 630.4170216086934 409.7751120497963 660.5353130418482
z" id="path26"></path>
<circle fill="#fbce07" r="5.616820946161337" cy="0" cx="0">
  <animateMotion repeatCount="indefinite" dur="14.285714285714286s" begin="-2.818446651203009s">
    <mpath xlink:href="#path26"></mpath>
  </animateMotion>
</circle><path stroke="none" fill="none" d="M 1260.0612744600187 387.9738530550593
c 0 33.25202752726997 -8.13613439497031 9.551114289747758 -17.687248684718067 9.551114289747758
S 1224.6867770905826 421.2258805823293 1224.6867770905826 387.9738530550593
s 8.13613439497031 -9.551114289747758 17.687248684718067 -9.551114289747758
S 1260.0612744600187 354.7218255277893 1260.0612744600187 387.9738530550593
z" id="path27"></path>
<circle fill="#ff3c00" r="7.051605334431251" cy="0" cx="0">
  <animateMotion repeatCount="indefinite" dur="14.285714285714286s" begin="-13.462184017632985s">
    <mpath xlink:href="#path27"></mpath>
  </animateMotion>
</circle><path stroke="none" fill="none" d="M 1432.9111726210424 157.07225391208246
c 0 36.990438855628106 -9.050852060419642 10.624913288318712 -19.675765348738356 10.624913288318712
S 1393.5596419235656 194.06269276771056 1393.5596419235656 157.07225391208246
s 9.050852060419642 -10.624913288318712 19.675765348738356 -10.624913288318712
S 1432.9111726210424 120.08181505645436 1432.9111726210424 157.07225391208246
z" id="path28"></path>
<circle fill="#ff3c00" r="7.697361878879038" cy="0" cx="0">
  <animateMotion repeatCount="indefinite" dur="14.285714285714286s" begin="-10.776457573213362s">
    <mpath xlink:href="#path28"></mpath>
  </animateMotion>
</circle><path stroke="none" fill="none" d="M 420.8895577334341 205.16904008895727
c 0 24.875848650499936 -6.086643818739345 7.145190569824449 -13.231834388563794 7.145190569824449
S 394.4258889563065 230.0448887394572 394.4258889563065 205.16904008895727
s 6.086643818739345 -7.145190569824449 13.231834388563794 -7.145190569824449
S 420.8895577334341 180.29319143845734 420.8895577334341 205.16904008895727
z" id="path29"></path>
<circle fill="#fbce07" r="7.030784429151285" cy="0" cx="0">
  <animateMotion repeatCount="indefinite" dur="14.285714285714286s" begin="-7.2763804998436195s">
    <mpath xlink:href="#path29"></mpath>
  </animateMotion>
</circle><g></g></g><!-- [ldio] generated by https://loading.io --></svg>